<svg xmlns="http://www.w3.org/2000/svg" xmlns:xlink="http://www.w3.org/1999/xlink" width="2000" zoomAndPan="magnify" viewBox="0 0 1500 269.999989" height="360" preserveAspectRatio="xMidYMid meet" version="1.0"><defs><g/></defs><g fill="#d0ff26" fill-opacity="1"><g transform="translate(-23.123062, 219.915277)"><g><path d="M 152.671875 -129.9375 C 166.773438 -115.9375 173.828125 -97.304688 173.828125 -74.046875 C 173.828125 -50.796875 166.773438 -32.117188 152.671875 -18.015625 C 138.566406 -3.910156 122.082031 3.140625 103.21875 3.140625 C 79.957031 3.140625 61.085938 -7.34375 46.609375 -28.3125 L 46.609375 0 L 24.59375 0 L 24.59375 -208.71875 L 46.609375 -208.71875 L 46.609375 -118.078125 C 61.472656 -139.992188 80.34375 -150.953125 103.21875 -150.953125 C 122.082031 -150.953125 138.566406 -143.945312 152.671875 -129.9375 Z M 151.25 -73.765625 C 151.25 -90.921875 146.195312 -104.785156 136.09375 -115.359375 C 125.988281 -125.941406 113.691406 -131.234375 99.203125 -131.234375 C 84.910156 -131.234375 72.425781 -125.847656 61.75 -115.078125 C 51.082031 -104.304688 45.75 -90.628906 45.75 -74.046875 C 45.75 -57.273438 51.082031 -43.503906 61.75 -32.734375 C 72.425781 -21.960938 84.910156 -16.578125 99.203125 -16.578125 C 114.078125 -16.578125 126.46875 -21.722656 136.375 -32.015625 C 146.289062 -42.304688 151.25 -56.222656 151.25 -73.765625 Z M 151.25 -73.765625 "/></g></g></g><g fill="#d0ff26" fill-opacity="1"><g transform="translate(144.99261, 219.915277)"><g><path d="M 165.25 -25.734375 C 165.25 -2.285156 158.53125 15.582031 145.09375 27.875 C 131.65625 40.164062 113.3125 46.3125 90.0625 46.3125 C 65.09375 46.3125 42.695312 39.453125 22.875 25.734375 L 32.875 8.578125 C 50.21875 21.160156 69.1875 27.453125 89.78125 27.453125 C 106.351562 27.453125 119.453125 22.921875 129.078125 13.859375 C 138.710938 4.804688 143.53125 -8.195312 143.53125 -25.15625 L 143.53125 -42.59375 C 127.894531 -21.820312 108.546875 -11.4375 85.484375 -11.4375 C 66.804688 -11.4375 50.554688 -17.820312 36.734375 -30.59375 C 22.921875 -43.363281 16.015625 -60.132812 16.015625 -80.90625 C 16.015625 -101.6875 22.96875 -118.554688 36.875 -131.515625 C 50.789062 -144.472656 66.992188 -150.953125 85.484375 -150.953125 C 109.117188 -150.953125 128.367188 -141.039062 143.234375 -121.21875 L 143.234375 -147.8125 L 165.25 -147.8125 Z M 144.09375 -81.203125 C 144.09375 -96.066406 138.707031 -108.164062 127.9375 -117.5 C 117.175781 -126.84375 104.457031 -131.515625 89.78125 -131.515625 C 75.289062 -131.515625 63.132812 -126.9375 53.3125 -117.78125 C 43.5 -108.632812 38.59375 -96.535156 38.59375 -81.484375 C 38.59375 -66.617188 43.597656 -54.46875 53.609375 -45.03125 C 63.617188 -35.59375 75.675781 -30.875 89.78125 -30.875 C 104.257812 -30.875 116.929688 -35.59375 127.796875 -45.03125 C 138.660156 -54.46875 144.09375 -66.523438 144.09375 -81.203125 Z M 144.09375 -81.203125 "/></g></g></g><g fill="#d0ff26" fill-opacity="1"><g transform="translate(313.108281, 219.915277)"><g><path d="M 152.671875 -129.9375 C 166.773438 -115.9375 173.828125 -97.304688 173.828125 -74.046875 C 173.828125 -50.796875 166.773438 -32.117188 152.671875 -18.015625 C 138.566406 -3.910156 122.082031 3.140625 103.21875 3.140625 C 79.957031 3.140625 61.085938 -7.34375 46.609375 -28.3125 L 46.609375 45.75 L 24.59375 45.75 L 24.59375 -147.8125 L 46.609375 -147.8125 L 46.609375 -118.078125 C 61.472656 -139.992188 80.34375 -150.953125 103.21875 -150.953125 C 122.082031 -150.953125 138.566406 -143.945312 152.671875 -129.9375 Z M 151.25 -73.765625 C 151.25 -90.921875 146.195312 -104.785156 136.09375 -115.359375 C 125.988281 -125.941406 113.691406 -131.234375 99.203125 -131.234375 C 84.910156 -131.234375 72.425781 -125.847656 61.75 -115.078125 C 51.082031 -104.304688 45.75 -90.628906 45.75 -74.046875 C 45.75 -57.273438 51.082031 -43.503906 61.75 -32.734375 C 72.425781 -21.960938 84.910156 -16.578125 99.203125 -16.578125 C 114.078125 -16.578125 126.46875 -21.722656 136.375 -32.015625 C 146.289062 -42.304688 151.25 -56.222656 151.25 -73.765625 Z M 151.25 -73.765625 "/></g></g></g><g fill="#bcbec0" fill-opacity="1"><g transform="translate(491.827125, 216.831441)"><g><path d="M 19.4375 -153.25 L 62.90625 -153.25 L 62.90625 -131.234375 C 68.238281 -138.484375 74.671875 -144.441406 82.203125 -149.109375 C 89.734375 -153.773438 99.21875 -156.109375 110.65625 -156.109375 C 119.613281 -156.109375 128.285156 -154.390625 136.671875 -150.953125 C 145.054688 -147.523438 152.488281 -142.425781 158.96875 -135.65625 C 165.445312 -128.894531 170.640625 -120.601562 174.546875 -110.78125 C 178.460938 -100.96875 180.421875 -89.675781 180.421875 -76.90625 L 180.421875 -76.34375 C 180.421875 -63.570312 178.460938 -52.273438 174.546875 -42.453125 C 170.640625 -32.640625 165.492188 -24.347656 159.109375 -17.578125 C 152.722656 -10.816406 145.335938 -5.71875 136.953125 -2.28125 C 128.566406 1.144531 119.800781 2.859375 110.65625 2.859375 C 99.019531 2.859375 89.4375 0.570312 81.90625 -4 C 74.382812 -8.570312 68.050781 -13.910156 62.90625 -20.015625 L 62.90625 45.75 L 19.4375 45.75 Z M 99.5 -34.03125 C 104.644531 -34.03125 109.457031 -35.03125 113.9375 -37.03125 C 118.414062 -39.03125 122.367188 -41.890625 125.796875 -45.609375 C 129.234375 -49.328125 131.953125 -53.757812 133.953125 -58.90625 C 135.953125 -64.050781 136.953125 -69.863281 136.953125 -76.34375 L 136.953125 -76.90625 C 136.953125 -83.195312 135.953125 -88.960938 133.953125 -94.203125 C 131.953125 -99.453125 129.234375 -103.929688 125.796875 -107.640625 C 122.367188 -111.359375 118.414062 -114.21875 113.9375 -116.21875 C 109.457031 -118.226562 104.644531 -119.234375 99.5 -119.234375 C 94.351562 -119.234375 89.539062 -118.226562 85.0625 -116.21875 C 80.582031 -114.21875 76.671875 -111.359375 73.328125 -107.640625 C 69.992188 -103.929688 67.328125 -99.453125 65.328125 -94.203125 C 63.328125 -88.960938 62.328125 -83.195312 62.328125 -76.90625 L 62.328125 -76.34375 C 62.328125 -70.050781 63.328125 -64.285156 65.328125 -59.046875 C 67.328125 -53.804688 69.992188 -49.328125 73.328125 -45.609375 C 76.671875 -41.890625 80.582031 -39.03125 85.0625 -37.03125 C 89.539062 -35.03125 94.351562 -34.03125 99.5 -34.03125 Z M 99.5 -34.03125 "/></g></g></g><g fill="#bcbec0" fill-opacity="1"><g transform="translate(669.082208, 216.831441)"><g><path d="M 92.0625 3.4375 C 80.625 3.4375 70 1.53125 60.1875 -2.28125 C 50.375 -6.09375 41.890625 -11.523438 34.734375 -18.578125 C 27.585938 -25.628906 22.015625 -33.96875 18.015625 -43.59375 C 14.015625 -53.226562 12.015625 -63.953125 12.015625 -75.765625 L 12.015625 -76.34375 C 12.015625 -87.207031 13.867188 -97.5 17.578125 -107.21875 C 21.296875 -116.9375 26.488281 -125.414062 33.15625 -132.65625 C 39.832031 -139.90625 47.789062 -145.625 57.03125 -149.8125 C 66.28125 -154.007812 76.53125 -156.109375 87.78125 -156.109375 C 100.550781 -156.109375 111.601562 -153.820312 120.9375 -149.25 C 130.28125 -144.675781 138.050781 -138.53125 144.25 -130.8125 C 150.445312 -123.09375 155.019531 -114.226562 157.96875 -104.21875 C 160.925781 -94.207031 162.40625 -83.769531 162.40625 -72.90625 C 162.40625 -71.195312 162.359375 -69.390625 162.265625 -67.484375 C 162.171875 -65.578125 162.023438 -63.570312 161.828125 -61.46875 L 55.1875 -61.46875 C 57.28125 -51.5625 61.613281 -44.082031 68.1875 -39.03125 C 74.769531 -33.976562 82.921875 -31.453125 92.640625 -31.453125 C 99.878906 -31.453125 106.359375 -32.691406 112.078125 -35.171875 C 117.796875 -37.648438 123.707031 -41.648438 129.8125 -47.171875 L 154.6875 -25.15625 C 147.4375 -16.195312 138.664062 -9.191406 128.375 -4.140625 C 118.082031 0.910156 105.976562 3.4375 92.0625 3.4375 Z M 120.09375 -88.640625 C 118.75 -98.359375 115.3125 -106.21875 109.78125 -112.21875 C 104.257812 -118.226562 96.925781 -121.234375 87.78125 -121.234375 C 78.625 -121.234375 71.234375 -118.273438 65.609375 -112.359375 C 59.992188 -106.453125 56.328125 -98.546875 54.609375 -88.640625 Z M 120.09375 -88.640625 "/></g></g></g><g fill="#bcbec0" fill-opacity="1"><g transform="translate(828.611647, 216.831441)"><g><path d="M 92.0625 3.4375 C 80.625 3.4375 70 1.53125 60.1875 -2.28125 C 50.375 -6.09375 41.890625 -11.523438 34.734375 -18.578125 C 27.585938 -25.628906 22.015625 -33.96875 18.015625 -43.59375 C 14.015625 -53.226562 12.015625 -63.953125 12.015625 -75.765625 L 12.015625 -76.34375 C 12.015625 -87.207031 13.867188 -97.5 17.578125 -107.21875 C 21.296875 -116.9375 26.488281 -125.414062 33.15625 -132.65625 C 39.832031 -139.90625 47.789062 -145.625 57.03125 -149.8125 C 66.28125 -154.007812 76.53125 -156.109375 87.78125 -156.109375 C 100.550781 -156.109375 111.601562 -153.820312 120.9375 -149.25 C 130.28125 -144.675781 138.050781 -138.53125 144.25 -130.8125 C 150.445312 -123.09375 155.019531 -114.226562 157.96875 -104.21875 C 160.925781 -94.207031 162.40625 -83.769531 162.40625 -72.90625 C 162.40625 -71.195312 162.359375 -69.390625 162.265625 -67.484375 C 162.171875 -65.578125 162.023438 -63.570312 161.828125 -61.46875 L 55.1875 -61.46875 C 57.28125 -51.5625 61.613281 -44.082031 68.1875 -39.03125 C 74.769531 -33.976562 82.921875 -31.453125 92.640625 -31.453125 C 99.878906 -31.453125 106.359375 -32.691406 112.078125 -35.171875 C 117.796875 -37.648438 123.707031 -41.648438 129.8125 -47.171875 L 154.6875 -25.15625 C 147.4375 -16.195312 138.664062 -9.191406 128.375 -4.140625 C 118.082031 0.910156 105.976562 3.4375 92.0625 3.4375 Z M 120.09375 -88.640625 C 118.75 -98.359375 115.3125 -106.21875 109.78125 -112.21875 C 104.257812 -118.226562 96.925781 -121.234375 87.78125 -121.234375 C 78.625 -121.234375 71.234375 -118.273438 65.609375 -112.359375 C 59.992188 -106.453125 56.328125 -98.546875 54.609375 -88.640625 Z M 120.09375 -88.640625 "/></g></g></g><g fill="#bcbec0" fill-opacity="1"><g transform="translate(988.141098, 216.831441)"><g><path d="M 19.4375 -153.25 L 62.90625 -153.25 L 62.90625 -122.375 C 67.289062 -132.851562 73.296875 -141.238281 80.921875 -147.53125 C 88.546875 -153.820312 98.835938 -156.679688 111.796875 -156.109375 L 111.796875 -110.65625 L 109.515625 -110.65625 C 95.023438 -110.65625 83.632812 -106.269531 75.34375 -97.5 C 67.050781 -88.726562 62.90625 -75.097656 62.90625 -56.609375 L 62.90625 0 L 19.4375 0 Z M 19.4375 -153.25 "/></g></g></g><g fill="#bcbec0" fill-opacity="1"><g transform="translate(1091.920437, 216.831441)"><g><path d="M 20.296875 -208.71875 L 66.046875 -208.71875 L 66.046875 -170.125 L 20.296875 -170.125 Z M 21.4375 -153.25 L 64.90625 -153.25 L 64.90625 0 L 21.4375 0 Z M 21.4375 -153.25 "/></g></g></g><g fill="#bcbec0" fill-opacity="1"><g transform="translate(1162.535676, 216.831441)"><g><path d="M 19.4375 -153.25 L 62.90625 -153.25 L 62.90625 -131.53125 C 65.382812 -134.769531 68.097656 -137.863281 71.046875 -140.8125 C 74.003906 -143.769531 77.289062 -146.390625 80.90625 -148.671875 C 84.53125 -150.960938 88.535156 -152.773438 92.921875 -154.109375 C 97.304688 -155.441406 102.265625 -156.109375 107.796875 -156.109375 C 124.378906 -156.109375 137.195312 -151.054688 146.25 -140.953125 C 155.300781 -130.859375 159.828125 -116.945312 159.828125 -99.21875 L 159.828125 0 L 116.375 0 L 116.375 -85.484375 C 116.375 -95.785156 114.082031 -103.554688 109.5 -108.796875 C 104.925781 -114.035156 98.445312 -116.65625 90.0625 -116.65625 C 81.675781 -116.65625 75.050781 -114.035156 70.1875 -108.796875 C 65.332031 -103.554688 62.90625 -95.785156 62.90625 -85.484375 L 62.90625 0 L 19.4375 0 Z M 19.4375 -153.25 "/></g></g></g><g fill="#bcbec0" fill-opacity="1"><g transform="translate(1324.924101, 216.831441)"><g><path d="M 88.0625 46.3125 C 75.476562 46.3125 63.46875 44.929688 52.03125 42.171875 C 40.59375 39.410156 30.015625 35.457031 20.296875 30.3125 L 35.171875 -2.28125 C 43.171875 2.09375 51.222656 5.519531 59.328125 8 C 67.429688 10.476562 76.628906 11.71875 86.921875 11.71875 C 101.785156 11.71875 112.789062 8.191406 119.9375 1.140625 C 127.09375 -5.910156 130.671875 -16.296875 130.671875 -30.015625 L 130.671875 -37.453125 C 124.179688 -29.640625 117.125 -23.539062 109.5 -19.15625 C 101.882812 -14.769531 92.257812 -12.578125 80.625 -12.578125 C 71.664062 -12.578125 63.085938 -14.148438 54.890625 -17.296875 C 46.703125 -20.441406 39.460938 -25.0625 33.171875 -31.15625 C 26.878906 -37.257812 21.875 -44.742188 18.15625 -53.609375 C 14.4375 -62.472656 12.578125 -72.625 12.578125 -84.0625 L 12.578125 -84.640625 C 12.578125 -96.066406 14.484375 -106.210938 18.296875 -115.078125 C 22.109375 -123.941406 27.160156 -131.421875 33.453125 -137.515625 C 39.742188 -143.617188 46.988281 -148.242188 55.1875 -151.390625 C 63.382812 -154.535156 71.863281 -156.109375 80.625 -156.109375 C 92.445312 -156.109375 102.171875 -153.914062 109.796875 -149.53125 C 117.421875 -145.144531 124.1875 -139.710938 130.09375 -133.234375 L 130.09375 -153.25 L 173.546875 -153.25 L 173.546875 -34.59375 C 173.546875 -7.332031 167.066406 12.773438 154.109375 25.734375 C 146.867188 32.972656 137.765625 38.210938 126.796875 41.453125 C 115.835938 44.691406 102.925781 46.3125 88.0625 46.3125 Z M 93.203125 -48.609375 C 98.546875 -48.609375 103.503906 -49.460938 108.078125 -51.171875 C 112.648438 -52.890625 116.601562 -55.320312 119.9375 -58.46875 C 123.28125 -61.613281 125.90625 -65.378906 127.8125 -69.765625 C 129.71875 -74.148438 130.671875 -78.914062 130.671875 -84.0625 L 130.671875 -84.640625 C 130.671875 -89.785156 129.71875 -94.546875 127.8125 -98.921875 C 125.90625 -103.304688 123.28125 -107.070312 119.9375 -110.21875 C 116.601562 -113.363281 112.648438 -115.796875 108.078125 -117.515625 C 103.503906 -119.234375 98.546875 -120.09375 93.203125 -120.09375 C 87.867188 -120.09375 82.960938 -119.234375 78.484375 -117.515625 C 74.003906 -115.796875 70.097656 -113.363281 66.765625 -110.21875 C 63.429688 -107.070312 60.8125 -103.304688 58.90625 -98.921875 C 57 -94.546875 56.046875 -89.785156 56.046875 -84.640625 L 56.046875 -84.0625 C 56.046875 -73.382812 59.570312 -64.804688 66.625 -58.328125 C 73.675781 -51.847656 82.535156 -48.609375 93.203125 -48.609375 Z M 93.203125 -48.609375 "/></g></g></g></svg>