<?xml version="1.0" encoding="UTF-8"?>
<svg width="124px" height="43px" viewBox="0 0 124 43" version="1.1" xmlns="http://www.w3.org/2000/svg" xmlns:xlink="http://www.w3.org/1999/xlink">
    <title>39BADFF0-7F8B-4789-8843-7CE686F7CE82</title>
    <g id="PrefixCTL" stroke="none" stroke-width="1" fill="none" fill-rule="evenodd">
        <g id="FullCTL-AssetSheet" transform="translate(-612.000000, -64.000000)">
            <g id="FullCTL-Logo-DarkBG" transform="translate(612.000000, 64.000000)">
                <g id="Group" fill="#D1FF27">
                    <path d="M15.104825,11.6642875 L15.104825,15.2117875 L7.9555375,15.2117875 L7.9555375,39.45465 L3.81625,39.45465 L3.81625,15.2655375 L5.38320711e-13,15.2655375 L5.38320711e-13,11.6642875 L3.81625,11.6642875 L3.81625,9.2992875 C3.81625,3.225 6.8805375,0 12.202325,0 C14.1367875,0 15.158575,0.215 16.502325,0.69875 L16.502325,4.3 C14.997325,3.87 14.1367875,3.60125 12.739825,3.60125 C9.514825,3.60125 7.9017875,5.53625 7.9017875,9.5142875 L7.9017875,11.6642875 L15.104825,11.6642875 Z" id="Fill-1"></path>
                    <path d="M37.8409675,11.6642875 L41.926505,11.6642875 L41.926505,39.45465 L37.8409675,39.45465 L37.8409675,34.61715 C35.9597175,37.62715 33.11043,40.0459 28.32668,40.0459 C21.6073925,40.0459 17.683105,35.5309 17.683105,28.9191125 L17.683105,11.6642875 L21.8223925,11.6642875 L21.8223925,27.8978625 C21.8223925,33.0578625 24.6173925,36.2834 29.50918,36.2834 C34.2397175,36.2834 37.8409675,32.7891125 37.8409675,27.5753625 L37.8409675,11.6642875 Z" id="Fill-4"></path>
                    <polygon id="Fill-6" points="45.4548163 39.45422 49.5935663 39.45422 49.5935663 0.21457 45.4548163 0.21457"></polygon>
                    <polygon id="Fill-8" points="53.1217163 39.45422 57.2604663 39.45422 57.2604663 0.21457 53.1217163 0.21457"></polygon>
                </g>
                <g id="Group-2" transform="translate(60.789611, 3.317907)">
                    <path d="M33.0327344,31.3224094 L31.3218719,31.3224094 C24.7208344,37.9239844 13.9794344,37.9239844 7.37785938,31.3224094 C0.776284375,24.7208344 0.776284375,13.9794344 7.37785938,7.37785937 C13.9794344,0.776284375 24.7208344,0.776284375 31.3218719,7.37785937 L33.0327344,5.66753437 C25.4754844,-1.88917813 13.2237094,-1.88917813 5.66753438,5.66753437 C-1.88917812,13.2242469 -1.88917812,25.4760219 5.66753438,33.0327344 C13.2237094,40.5894469 25.4754844,40.5894469 33.0327344,33.0327344 L33.0327344,31.3224094 Z" id="Fill-9" fill="#D1FF27"></path>
                    <path d="M44.6100006,36.6102806 C39.7166006,36.6102806 36.4023756,34.6634556 36.4023756,28.1398181 L36.4023756,14.2191056 L33.0354756,14.2191056 L33.0354756,7.93734313 L36.4023756,7.93734313 L36.4023756,8.0625e-05 L44.3993006,8.0625e-05 L44.3993006,7.93734313 L51.0282881,7.93734313 L51.0282881,14.2191056 L44.3993006,14.2191056 L44.3993006,26.8245556 C44.3993006,28.6660306 45.1883506,29.5604306 46.9771506,29.5604306 C48.4504381,29.5604306 49.7657006,29.1922431 50.9229381,28.5606806 L50.9229381,34.9795056 C49.2394881,35.9787181 47.2926631,36.6102806 44.6100006,36.6102806" id="Fill-10" fill="#F1F2F2"></path>
                    <polygon id="Fill-11" fill="#F1F2F2" points="54.4520556 36.1368506 62.4489806 36.1368506 62.4489806 0.000188125 54.4520556 0.000188125"></polygon>
                    <path d="M12.5085119,12.5088344 C8.73042437,16.2874594 8.73042437,22.4133469 12.5085119,26.1914344 L10.7981869,27.9017594 C6.08323687,23.1862719 6.08323687,15.5139969 10.7981869,10.7985094 C13.1561994,8.44103437 16.2532744,7.26229687 19.3503494,7.26229687 L19.3503494,9.67513437 C16.8740869,9.67513437 14.3983619,10.6195219 12.5085119,12.5088344 M9.08839937,9.08818437 C3.42046187,14.7561219 3.42099937,23.9446844 9.08839937,29.6120844 C14.7557994,35.2794844 23.9443619,35.2794844 29.6117619,29.6120844 L24.4807869,24.4811094 C21.6519244,27.3105094 17.0482369,27.3105094 14.2193744,24.4811094 C11.3899744,21.6517094 11.3899744,17.0485594 14.2193744,14.2191594 C17.0482369,11.3897594 21.6519244,11.3897594 24.4807869,14.2191594 L26.1911119,14.2191594 L29.6117619,14.2191594 L29.6117619,10.7985094 L29.6117619,9.08818437 C23.9443619,3.42078438 14.7557994,3.42078438 9.08839937,9.08818437" id="Fill-12" fill="#F1F2F2"></path>
                </g>
            </g>
        </g>
    </g>
</svg>