<?xml version="1.0" encoding="UTF-8"?>
<svg width="826px" height="282px" viewBox="0 0 826 282" version="1.1" xmlns="http://www.w3.org/2000/svg" xmlns:xlink="http://www.w3.org/1999/xlink">
    <title>FullCTL-Logo-DarkBG</title>
    <g id="FullCTL-Logo-DarkBG" stroke="none" stroke-width="1" fill="none" fill-rule="evenodd">
        <g id="FullCTL-Logo-LightBG">
            <g id="Group" fill="#D1FF27">
                <path d="M101.1672,78.1236 L101.1672,101.8836 L53.2836,101.8836 L53.2836,264.2544 L25.56,264.2544 L25.56,102.2436 L3.60549685e-12,102.2436 L3.60549685e-12,78.1236 L25.56,78.1236 L25.56,62.2836 C25.56,21.6 46.0836,0 81.7272,0 C94.6836,0 101.5272,1.44 110.5272,4.68 L110.5272,28.8 C100.4472,25.92 94.6836,24.12 85.3272,24.12 C63.7272,24.12 52.9236,37.08 52.9236,63.7236 L52.9236,78.1236 L101.1672,78.1236 Z" id="Fill-1"></path>
                <path d="M253.44648,78.1236 L280.81008,78.1236 L280.81008,264.2544 L253.44648,264.2544 L253.44648,231.8544 C240.84648,252.0144 221.76288,268.2144 189.72288,268.2144 C144.71928,268.2144 118.43568,237.9744 118.43568,193.6908 L118.43568,78.1236 L146.15928,78.1236 L146.15928,186.8508 C146.15928,221.4108 164.87928,243.0144 197.64288,243.0144 C229.32648,243.0144 253.44648,219.6108 253.44648,184.6908 L253.44648,78.1236 Z" id="Fill-4"></path>
                <polygon id="Fill-6" points="304.44156 264.25152 332.16156 264.25152 332.16156 1.43712 304.44156 1.43712"></polygon>
                <polygon id="Fill-8" points="355.79196 264.25152 383.51196 264.25152 383.51196 1.43712 355.79196 1.43712"></polygon>
            </g>
            <g id="Group-2" transform="translate(407.149020, 22.222260)">
                <path d="M221.2425,209.7873 L209.7837,209.7873 C165.5721,254.0025 93.6297,254.0025 49.4145,209.7873 C5.1993,165.5721 5.1993,93.6297 49.4145,49.4145 C93.6297,5.1993 165.5721,5.1993 209.7837,49.4145 L221.2425,37.9593 C170.6265,-12.6531 88.5681,-12.6531 37.9593,37.9593 C-12.6531,88.5717 -12.6531,170.6301 37.9593,221.2425 C88.5681,271.8549 170.6265,271.8549 221.2425,221.2425 L221.2425,209.7873 Z" id="Fill-9" fill="#D1FF27"></path>
                <path d="M298.78326,245.20374 C266.00886,245.20374 243.81126,232.16454 243.81126,188.47134 L243.81126,95.23494 L221.26086,95.23494 L221.26086,53.16174 L243.81126,53.16174 L243.81126,0.00054 L297.37206,0.00054 L297.37206,53.16174 L341.77086,53.16174 L341.77086,95.23494 L297.37206,95.23494 L297.37206,179.66214 C297.37206,191.99574 302.65686,197.98614 314.63766,197.98614 C324.50526,197.98614 333.31446,195.52014 341.06526,191.29014 L341.06526,234.28134 C329.79006,240.97374 316.75086,245.20374 298.78326,245.20374" id="Fill-10" fill="#F1F2F2"></path>
                <polygon id="Fill-11" fill="#F1F2F2" points="364.70214 242.03286 418.26294 242.03286 418.26294 0.00126 364.70214 0.00126"></polygon>
                <path d="M83.77794,83.7801 C58.47354,109.0881 58.47354,150.1173 83.77794,175.4217 L72.32274,186.8769 C40.74354,155.2941 40.74354,103.9077 72.32274,72.3249 C88.11594,56.5353 108.85914,48.6405 129.60234,48.6405 L129.60234,64.8009 C113.01714,64.8009 96.43554,71.1261 83.77794,83.7801 M60.87114,60.8697 C22.90914,98.8317 22.91274,160.3737 60.87114,198.3321 C98.82954,236.2905 160.37154,236.2905 198.32994,198.3321 L163.96434,163.9665 C145.01754,182.9169 114.18354,182.9169 95.23674,163.9665 C76.28634,145.0161 76.28634,114.1857 95.23674,95.2353 C114.18354,76.2849 145.01754,76.2849 163.96434,95.2353 L175.41954,95.2353 L198.32994,95.2353 L198.32994,72.3249 L198.32994,60.8697 C160.37154,22.9113 98.82954,22.9113 60.87114,60.8697" id="Fill-12" fill="#F1F2F2"></path>
            </g>
        </g>
    </g>
</svg>