<?xml version="1.0" encoding="UTF-8"?>
<svg width="135px" height="47px" viewBox="0 0 135 47" version="1.1" xmlns="http://www.w3.org/2000/svg" xmlns:xlink="http://www.w3.org/1999/xlink">
    <title>C502B55C-1A2E-4EC2-9269-3716BEFCF478</title>
    <g id="Page-1" stroke="none" stroke-width="1" fill="none" fill-rule="evenodd">
        <g id="Docs-Home" transform="translate(-24.000000, -24.000000)">
            <g id="FullCTL-Logo-LightBG" transform="translate(24.000000, 24.000000)">
                <g id="Group" fill="#D1FF27">
                    <path d="M16.5316083,12.7660818 L16.5316083,16.6486744 L8.70700785,16.6486744 L8.70700785,43.181488 L4.17672831,43.181488 L4.17672831,16.7075015 L5.89169827e-13,16.7075015 L5.89169827e-13,12.7660818 L4.17672831,12.7660818 L4.17672831,10.1776868 C4.17672831,3.52962956 7.53046466,0 13.3549417,0 C15.4721312,0 16.5904355,0.235308637 18.0611144,0.764753071 L18.0611144,4.70617274 C16.413954,4.23555547 15.4721312,3.94141967 13.9432133,3.94141967 C10.4135837,3.94141967 8.64818069,6.05919741 8.64818069,10.4129955 L8.64818069,12.7660818 L16.5316083,12.7660818 Z" id="Fill-1"></path>
                    <path d="M41.415379,12.7660818 L45.8868314,12.7660818 L45.8868314,43.181488 L41.415379,43.181488 L41.415379,37.8870437 C39.3564285,41.1813646 36.2380007,43.8285868 31.0023836,43.8285868 C23.6484004,43.8285868 19.3534295,38.8871054 19.3534295,31.6507765 L19.3534295,12.7660818 L23.883709,12.7660818 L23.883709,30.5330605 C23.883709,36.1804678 26.9427213,39.7106856 32.2965811,39.7106856 C37.4739594,39.7106856 41.415379,35.886332 41.415379,30.1800975 L41.415379,12.7660818 Z" id="Fill-4"></path>
                    <polygon id="Fill-6" points="49.7484226 43.1810174 54.2781139 43.1810174 54.2781139 0.23483802 49.7484226 0.23483802"></polygon>
                    <polygon id="Fill-8" points="58.1395286 43.1810174 62.6692199 43.1810174 62.6692199 0.23483802 58.1395286 0.23483802"></polygon>
                </g>
                <g id="Group-2" transform="translate(66.531723, 3.631312)">
                    <path d="M36.1529661,34.2810859 L34.2804976,34.2810859 C27.0559342,41.5062376 15.2999147,41.5062376 8.07476295,34.2810859 C0.849611248,27.0559342 0.849611248,15.2999147 8.07476295,8.07476295 C15.2999147,0.849611248 27.0559342,0.849611248 34.2804976,8.07476295 L36.1529661,6.20288274 C27.8818675,-2.06762758 14.4728048,-2.06762758 6.20288274,6.20288274 C-2.06762758,14.4733931 -2.06762758,27.8824558 6.20288274,36.1529661 C14.4728048,44.4234764 27.8818675,44.4234764 36.1529661,36.1529661 L36.1529661,34.2810859 Z" id="Fill-9" fill="#D1FF27"></path>
                    <path d="M48.8238068,40.068443 C43.4681822,40.068443 39.8408995,37.9377233 39.8408995,30.7978709 L39.8408995,15.562225 L36.1559663,15.562225 L36.1559663,8.68709485 L39.8408995,8.68709485 L39.8408995,8.82407389e-05 L48.5932043,8.82407389e-05 L48.5932043,8.68709485 L55.8483578,8.68709485 L55.8483578,15.562225 L48.5932043,15.562225 L48.5932043,29.3583704 C48.5932043,31.3737888 49.456787,32.3526728 51.4145548,32.3526728 C53.0270073,32.3526728 54.4665079,31.9497067 55.7330566,31.2584876 L55.7330566,38.283627 C53.89059,39.3772239 51.7598703,40.068443 48.8238068,40.068443" id="Fill-10" fill="#F1F2F2"></path>
                    <polygon id="Fill-11" fill="#F1F2F2" points="59.5955302 39.5502934 68.347835 39.5502934 68.347835 0.000205895058 59.5955302 0.000205895058"></polygon>
                    <path d="M13.6900506,13.6904036 C9.55508959,17.8259529 9.55508959,24.5304842 13.6900506,28.6654452 L11.8181704,30.5373255 C6.65785199,25.3764188 6.65785199,16.9794301 11.8181704,11.8185234 C14.3989179,9.23836416 17.7885388,7.94828456 21.1781597,7.94828456 L21.1781597,10.5890357 C18.4679925,10.5890357 15.7584135,11.6226289 13.6900506,13.6904036 M9.94687847,9.94664316 C3.74355452,16.1499671 3.74414279,26.20647 9.94687847,32.4092057 C16.1496141,38.6119413 26.206117,38.6119413 32.4088527,32.4092057 L26.7932121,26.793565 C23.6971387,29.8902267 18.6585925,29.8902267 15.5625191,26.793565 C12.4658574,23.6969034 12.4658574,18.6589455 15.5625191,15.5622838 C18.6585925,12.4656221 23.6971387,12.4656221 26.7932121,15.5622838 L28.6650923,15.5622838 L32.4088527,15.5622838 L32.4088527,11.8185234 L32.4088527,9.94664316 C26.206117,3.74390749 16.1496141,3.74390749 9.94687847,9.94664316" id="Fill-12" fill="#F1F2F2"></path>
                </g>
            </g>
        </g>
    </g>
</svg>