<?xml version="1.0" encoding="UTF-8"?>
<svg width="1268px" height="359px" viewBox="0 0 1268 359" version="1.1" xmlns="http://www.w3.org/2000/svg" xmlns:xlink="http://www.w3.org/1999/xlink">
    <title>fullauto-TypeTreatment-DarkBG</title>
    <g id="fullauto-TypeTreatment-DarkBG" stroke="none" stroke-width="1" fill="none" fill-rule="evenodd">
        <g id="Group" transform="translate(0, 16)">
            <path d="M428.148,281.836 L457.718,281.836 L457.718,1.539 L428.148,1.539 L428.148,281.836 Z M350.203,281.836 L379.769,281.836 L379.769,1.539 L350.203,1.539 L350.203,281.836 Z M274.93,196.98 C274.93,234.226 249.203,259.183 215.414,259.183 C180.477,259.183 160.508,236.144 160.508,199.281 L160.508,83.324 L130.941,83.324 L130.941,206.578 C130.941,253.808 158.973,286.062 206.969,286.062 C241.141,286.062 261.492,268.781 274.93,247.281 L274.93,281.836 L304.113,281.836 L304.113,83.324 L274.93,83.324 L274.93,196.98 Z M87.164,0 C100.984,0 110.203,1.539 119.801,4.992 L119.801,30.718 C109.051,27.648 100.984,25.726 91.004,25.726 C67.965,25.726 56.445,39.55 56.445,67.965 L56.445,84.093 L119.418,84.093 L119.418,109.433 L56.828,109.433 L56.828,281.836 L27.266,281.836 L27.266,109.433 L0,109.433 L0,83.711 L27.266,83.711 L27.266,66.429 C27.266,23.039 49.148,0 87.164,0 L87.164,0 Z" id="Fill-1" fill="#D1FF27"></path>
            <path d="M1210.7188,180.0856 C1210.7188,210.4216 1190.7498,236.1446 1157.3438,236.1446 C1125.0938,236.1446 1103.2028,209.6476 1103.2028,179.3156 L1103.2028,178.5466 C1103.2028,148.2146 1123.1718,122.4916 1156.5778,122.4916 C1188.8278,122.4916 1210.7188,148.9836 1210.7188,179.3156 L1210.7188,180.0856 Z M1157.3438,72.1876 C1093.2228,72.1876 1045.6098,120.1876 1045.6098,179.3156 L1045.6098,180.0856 C1045.6098,239.2186 1092.8358,286.4446 1156.5778,286.4446 C1220.7028,286.4446 1268.3128,238.4486 1268.3128,179.3156 L1268.3128,178.5466 C1268.3128,119.4176 1221.0858,72.1876 1157.3438,72.1876 L1157.3438,72.1876 Z M992.9958,76.0306 L1041.3748,76.0306 L1041.3748,125.9446 L992.9958,125.9446 L992.9958,213.8746 C992.9958,227.3126 998.7578,233.8436 1011.8128,233.8436 C1022.5628,233.8436 1032.1638,231.1556 1040.6098,226.5466 L1040.6098,273.3906 C1028.3208,280.6876 1014.1168,285.2926 994.5318,285.2926 C958.8238,285.2926 934.6328,271.0856 934.6328,223.4766 L934.6328,125.9446 L910.0588,125.9446 L910.0588,76.0306 L934.6328,76.0306 L934.6328,23.4216 L992.9958,23.4216 L992.9958,76.0306 Z M837.4768,76.0306 L895.8438,76.0306 L895.8438,281.8356 L837.4768,281.8356 L837.4768,252.6556 C824.0388,269.9376 806.7618,285.6796 777.1958,285.6796 C733.0388,285.6796 707.3128,256.4956 707.3128,209.2656 L707.3128,76.0306 L765.6758,76.0306 L765.6758,190.8356 C765.6758,218.4836 778.7308,232.6876 800.9998,232.6876 C823.2738,232.6876 837.4768,218.4836 837.4768,190.8356 L837.4768,76.0306 Z M626.2818,209.2656 C626.2818,230.3826 607.8518,245.3586 580.5858,245.3586 C561.7738,245.3586 548.7188,236.1446 548.7188,220.4016 L548.7188,219.6326 C548.7188,201.2026 564.0778,191.2186 589.0348,191.2186 C603.2418,191.2186 616.2968,194.2926 626.2818,198.8976 L626.2818,209.2656 Z M589.8048,73.7266 C554.8598,73.7266 532.5938,80.2496 509.9378,90.2336 L524.5278,134.7766 C543.3438,127.8666 559.0858,123.6406 581.3558,123.6406 C610.5388,123.6406 625.5118,137.0776 625.5118,161.2736 L625.5118,164.7266 C610.9218,159.7336 595.9458,156.2806 575.2108,156.2806 C526.4458,156.2806 492.2738,177.0156 492.2738,221.9376 L492.2738,222.7066 C492.2738,263.4056 524.1448,285.6796 562.9258,285.6796 C591.3398,285.6796 610.9218,275.3126 625.1288,259.5696 L625.1288,281.8356 L681.5708,281.8356 L681.5708,162.4216 C681.5708,106.7456 653.5428,73.7266 589.8048,73.7266 L589.8048,73.7266 Z" id="Fill-3" fill="#BCBEC0"></path>
        </g>
    </g>
</svg>