<?xml version="1.0" encoding="UTF-8"?>
<svg width="895px" height="359px" viewBox="0 0 895 359" version="1.1" xmlns="http://www.w3.org/2000/svg" xmlns:xlink="http://www.w3.org/1999/xlink">
    <title>ixops-TypeTreatment-DarkBG</title>
    <g id="ixops-TypeTreatment-DarkBG" stroke="none" stroke-width="1" fill="none" fill-rule="evenodd">
        <path d="M0,55.64 L33.789,55.64 L33.789,23 L0,23 L0,55.64 Z M213.493,99.027 L154.742,175.823 L95.996,99.027 L62.207,99.027 L137.082,196.558 L59.133,297.542 L92.156,297.542 L153.977,216.523 L215.411,297.542 L249.586,297.542 L171.254,195.789 L246.512,99.027 L213.493,99.027 Z M1.921,297.542 L31.488,297.542 L31.488,99.027 L1.921,99.027 L1.921,297.542 Z" id="Fill-1" fill="#D1FF27"></path>
        <path d="M430.8281,195.019 C430.8281,164.687 408.9411,138.195 376.6911,138.195 C343.2851,138.195 323.3161,163.917 323.3161,194.253 L323.3161,195.019 C323.3161,225.355 345.2031,251.847 377.4571,251.847 C410.8631,251.847 430.8281,226.124 430.8281,195.789 L430.8281,195.019 Z M488.4261,194.253 L488.4261,195.019 C488.4261,254.152 440.8121,302.148 376.6911,302.148 C312.9491,302.148 265.7231,254.921 265.7231,195.789 L265.7231,195.019 C265.7231,135.89 313.3361,87.894 377.4571,87.894 C441.1951,87.894 488.4261,135.121 488.4261,194.253 L488.4261,194.253 Z M665.4491,194.253 C665.4491,160.078 642.4101,137.425 615.1481,137.425 C587.8871,137.425 565.2301,160.078 565.2301,194.253 L565.2301,195.019 C565.2301,229.195 587.8871,251.847 615.1481,251.847 C642.4101,251.847 665.4491,229.578 665.4491,195.019 L665.4491,194.253 Z M723.8121,194.253 L723.8121,195.019 C723.8121,263.753 678.8871,301.382 630.1251,301.382 C599.0231,301.382 579.8241,287.175 566.0001,270.664 L566.0001,358.976 L507.6371,358.976 L507.6371,91.734 L566.0001,91.734 L566.0001,121.296 C580.2071,102.101 599.7891,87.894 630.1251,87.894 C678.1211,87.894 723.8121,125.523 723.8121,194.253 L723.8121,194.253 Z M894.6911,234.187 L894.6911,234.953 C894.6911,280.648 860.5191,301.382 815.9761,301.382 C787.1801,301.382 754.9261,291.781 727.6641,270.281 L752.6211,231.882 C774.8901,248.007 798.3161,256.457 817.5121,256.457 C834.4061,256.457 842.0861,250.312 842.0861,241.097 L842.0861,240.332 C842.0861,227.66 822.1211,223.433 799.4651,216.523 C770.6681,208.078 738.0311,194.636 738.0311,154.703 L738.0311,153.937 C738.0311,112.081 771.8201,88.66 813.2891,88.66 C839.3981,88.66 867.8121,97.492 890.0861,112.468 L867.8121,152.785 C847.4651,140.882 827.1131,133.585 812.1371,133.585 C797.9301,133.585 790.6371,139.73 790.6371,147.792 L790.6371,148.562 C790.6371,160.078 810.2191,165.457 832.4881,173.136 C861.2851,182.734 894.6911,196.558 894.6911,234.187 L894.6911,234.187 Z" id="Fill-2" fill="#BCBEC0"></path>
    </g>
</svg>