<?xml version="1.0" encoding="UTF-8"?>
<svg width="1775px" height="359px" viewBox="0 0 1775 359" version="1.1" xmlns="http://www.w3.org/2000/svg" xmlns:xlink="http://www.w3.org/1999/xlink">
    <title>netdevops-TypeTreatment-DarkBG 2</title>
    <g id="netdevops-TypeTreatment-DarkBG" stroke="none" stroke-width="1" fill="none" fill-rule="evenodd">
        <path d="M1149.6719,95.7849 L1063.2769,295.8319 L1037.1679,295.8319 L951.1599,95.7849 L983.7969,95.7849 L1050.6089,260.5079 L1117.8009,95.7849 L1149.6719,95.7849 Z M793.7149,184.0979 C797.5549,145.3159 823.6639,116.5189 858.2229,116.5189 C897.7699,116.5189 918.5039,148.0039 921.5779,184.0979 L793.7149,184.0979 Z M858.9879,91.5579 C804.0819,91.5579 763.7659,137.6369 763.7659,195.2339 C763.7659,257.0509 808.3049,298.9059 862.8279,298.9059 C900.4569,298.9059 924.6489,283.9299 944.6169,261.6599 L926.1839,245.1479 C910.0589,262.0429 890.8599,273.1799 863.5979,273.1799 C828.6559,273.1799 797.9379,248.9879 793.7149,205.9839 L951.1449,205.9839 C951.5269,202.5269 951.5269,199.4569 951.5269,196.7689 C951.5269,138.4059 917.7379,91.5579 858.9879,91.5579 L858.9879,91.5579 Z M632.8199,272.0269 C595.1919,272.0269 562.9379,242.0779 562.9379,194.8479 C562.9379,146.4689 594.4219,118.0549 632.8199,118.0549 C669.6799,118.0549 704.6209,148.7729 704.6209,194.8479 C704.6209,241.3079 669.6799,272.0269 632.8199,272.0269 L632.8199,272.0269 Z M703.4689,133.7969 C688.1129,111.5269 664.3049,91.5579 627.4449,91.5579 C579.8319,91.5579 532.6019,129.9569 532.6019,195.2339 C532.6019,260.8899 579.8319,298.5229 627.4449,298.5229 C663.9219,298.5229 687.3439,278.1719 703.4689,254.3629 L703.4689,294.2969 L733.0349,294.2969 L733.0349,13.9999 L703.4689,13.9999 L703.4689,133.7969 Z" id="Fill-1" fill="#D1FF27"></path>
        <path d="M1713.0195,173.4373 C1690.7465,165.7573 1671.1645,160.3823 1671.1645,148.8633 L1671.1645,148.0933 C1671.1645,140.0313 1678.4605,133.8863 1692.6675,133.8863 C1707.6405,133.8863 1727.9925,141.1833 1748.3435,153.0853 L1770.6135,112.7693 C1748.3435,97.7963 1719.9295,88.9643 1693.8205,88.9643 C1652.3515,88.9643 1618.5585,112.3863 1618.5585,154.2383 L1618.5585,155.0073 C1618.5585,194.9413 1651.1995,208.3783 1679.9965,216.8283 C1702.6525,223.7383 1722.6175,227.9603 1722.6175,240.6323 L1722.6175,241.4023 C1722.6175,250.6173 1714.9375,256.7573 1698.0425,256.7573 C1678.8435,256.7573 1655.4215,248.3123 1633.1525,232.1833 L1608.1915,270.5823 C1635.4565,292.0853 1667.7065,301.6833 1696.5075,301.6833 C1741.0465,301.6833 1775.2225,280.9493 1775.2225,235.2573 L1775.2225,234.4883 C1775.2225,196.8593 1741.8165,183.0353 1713.0195,173.4373 L1713.0195,173.4373 Z M1545.9765,194.5543 C1545.9765,160.3823 1522.9415,137.7263 1495.6795,137.7263 C1468.4145,137.7263 1445.7615,160.3823 1445.7615,194.5543 L1445.7615,195.3243 C1445.7615,229.4963 1468.4145,252.1523 1495.6795,252.1523 C1522.9415,252.1523 1545.9765,229.8823 1545.9765,195.3243 L1545.9765,194.5543 Z M1604.3435,194.5543 L1604.3435,195.3243 C1604.3435,264.0543 1559.4175,301.6833 1510.6525,301.6833 C1479.5505,301.6833 1460.3515,287.4763 1446.5315,270.9643 L1446.5315,359.2813 L1388.1645,359.2813 L1388.1645,92.0353 L1446.5315,92.0353 L1446.5315,121.6013 C1460.7385,102.4023 1480.3205,88.1953 1510.6525,88.1953 C1558.6485,88.1953 1604.3435,125.8243 1604.3435,194.5543 L1604.3435,194.5543 Z M1311.3595,195.3243 C1311.3595,164.9923 1289.4725,138.4963 1257.2185,138.4963 C1223.8125,138.4963 1203.8475,164.2223 1203.8475,194.5543 L1203.8475,195.3243 C1203.8475,225.6563 1225.7345,252.1523 1257.9885,252.1523 C1291.3905,252.1523 1311.3595,226.4253 1311.3595,196.0933 L1311.3595,195.3243 Z M1368.9535,194.5543 L1368.9535,195.3243 C1368.9535,254.4573 1321.3435,302.4533 1257.2185,302.4533 C1193.4805,302.4533 1146.2495,255.2223 1146.2495,196.0933 L1146.2495,195.3243 C1146.2495,136.1913 1193.8635,88.1953 1257.9885,88.1953 C1321.7265,88.1953 1368.9535,135.4253 1368.9535,194.5543 L1368.9535,194.5543 Z M457.7225,35.8823 L428.1565,35.8823 L428.1565,95.7853 L400.5075,95.7853 L400.5075,121.8943 L428.1565,121.8943 L428.1565,241.6953 C428.1565,282.0113 452.3475,297.7533 484.2145,297.7533 C498.4215,297.7533 509.5585,294.6833 519.9255,289.3043 L519.9255,263.9643 C509.5585,268.9573 501.1095,270.8753 491.1245,270.8753 C471.1605,270.8753 457.7225,262.0423 457.7225,237.8553 L457.7225,121.8943 L520.6915,121.8943 L520.6915,95.7853 L457.7225,95.7853 L457.7225,35.8823 Z M359.0275,184.0973 C355.9565,148.0033 335.2225,116.5193 295.6715,116.5193 C261.1175,116.5193 235.0035,145.3163 231.1645,184.0973 L359.0275,184.0973 Z M388.9765,196.7693 C388.9765,199.4573 388.9765,202.5273 388.5935,205.9843 L231.1645,205.9843 C235.3905,248.9883 266.1055,273.1793 301.0465,273.1793 C328.3125,273.1793 347.5075,262.0423 363.6365,245.1483 L382.0665,261.6603 C362.1015,283.9293 337.9105,298.9063 300.2815,298.9063 C245.7575,298.9063 201.2145,257.0503 201.2145,195.2343 C201.2145,137.6363 241.5315,91.5583 296.4415,91.5583 C355.1875,91.5583 388.9765,138.4063 388.9765,196.7693 L388.9765,196.7693 Z M173.5545,171.0423 L173.5545,294.2963 L143.9885,294.2963 L143.9885,178.3393 C143.9885,141.4763 124.0235,118.4373 89.0815,118.4373 C54.9065,118.4373 29.5665,143.3983 29.5665,180.6403 L29.5665,294.2963 L-0.0005,294.2963 L-0.0005,95.7853 L29.5665,95.7853 L29.5665,130.3393 C42.6215,108.8393 63.3555,91.5583 97.5275,91.5583 C145.5235,91.5583 173.5545,123.8123 173.5545,171.0423 L173.5545,171.0423 Z" id="Fill-4" fill="#BCBEC0"></path>
    </g>
</svg>